<svg width="30" height="30" viewBox="0 0 30 30" fill="none" xmlns="http://www.w3.org/2000/svg">
<circle cx="15" cy="15" r="15" fill="white"/>
<path d="M8.68225 19C8.59559 19 8.52192 18.974 8.46125 18.922C8.40925 18.8613 8.38325 18.7877 8.38325 18.701V18.155C8.38325 18.0597 8.40925 17.986 8.46125 17.934C8.52192 17.8733 8.59559 17.843 8.68225 17.843H9.13725C9.41459 17.843 9.65292 17.778 9.85225 17.648C10.0516 17.5093 10.2379 17.297 10.4113 17.011C10.5933 16.725 10.7796 16.3523 10.9703 15.893L13.5053 10.121C13.5313 10.043 13.5746 9.98667 13.6353 9.952C13.6959 9.91733 13.7609 9.9 13.8303 9.9H14.5323C14.6016 9.9 14.6623 9.926 14.7143 9.978C14.7663 10.03 14.7923 10.0907 14.7923 10.16C14.7923 10.1947 14.7879 10.2293 14.7793 10.264C14.7793 10.29 14.7706 10.316 14.7533 10.342L12.1013 16.348C11.8933 16.8073 11.6983 17.206 11.5163 17.544C11.3343 17.8733 11.1393 18.1463 10.9313 18.363C10.7233 18.5797 10.4806 18.74 10.2033 18.844C9.92592 18.948 9.59225 19 9.20225 19H8.68225ZM10.8923 16.79L7.34325 10.316C7.31725 10.264 7.30425 10.2163 7.30425 10.173C7.30425 10.1037 7.33025 10.043 7.38225 9.991C7.44292 9.93033 7.50792 9.9 7.57725 9.9H8.30525C8.38325 9.9 8.44825 9.91733 8.50025 9.952C8.55225 9.98667 8.59559 10.043 8.63025 10.121L11.5813 15.49L10.8923 16.79ZM18.6645 19.13C18.1359 19.13 17.6679 19.0693 17.2605 18.948C16.8532 18.8267 16.5109 18.662 16.2335 18.454C15.9562 18.2373 15.7352 17.9903 15.5705 17.713C15.4145 17.4357 15.3235 17.1367 15.2975 16.816C15.2889 16.738 15.3105 16.6773 15.3625 16.634C15.4232 16.5907 15.4925 16.569 15.5705 16.569H16.2205C16.2985 16.569 16.3679 16.5863 16.4285 16.621C16.4979 16.6557 16.5499 16.7293 16.5845 16.842C16.6885 17.1887 16.9139 17.4747 17.2605 17.7C17.6072 17.9167 18.0709 18.025 18.6515 18.025C19.0589 18.025 19.4272 17.9643 19.7565 17.843C20.0859 17.713 20.3502 17.531 20.5495 17.297C20.7489 17.0543 20.8485 16.764 20.8485 16.426C20.8485 15.9147 20.6622 15.5203 20.2895 15.243C19.9255 14.957 19.4272 14.814 18.7945 14.814H17.8585C17.7719 14.814 17.7025 14.788 17.6505 14.736C17.5985 14.6753 17.5725 14.6017 17.5725 14.515V14.06C17.5725 13.9647 17.5985 13.891 17.6505 13.839C17.7025 13.7783 17.7719 13.748 17.8585 13.748H18.7425C19.2799 13.748 19.7132 13.631 20.0425 13.397C20.3805 13.163 20.5495 12.7903 20.5495 12.279C20.5495 11.993 20.4629 11.746 20.2895 11.538C20.1249 11.33 19.9039 11.1697 19.6265 11.057C19.3492 10.9357 19.0372 10.875 18.6905 10.875C18.1619 10.875 17.7199 10.9703 17.3645 11.161C17.0092 11.3517 16.7882 11.6593 16.7015 12.084C16.6755 12.1793 16.6365 12.2487 16.5845 12.292C16.5325 12.3267 16.4675 12.344 16.3895 12.344H15.6875C15.6095 12.344 15.5402 12.318 15.4795 12.266C15.4275 12.214 15.4059 12.149 15.4145 12.071C15.4405 11.7417 15.5315 11.4383 15.6875 11.161C15.8435 10.875 16.0559 10.628 16.3245 10.42C16.6019 10.212 16.9399 10.0517 17.3385 9.939C17.7372 9.82633 18.1922 9.77 18.7035 9.77C19.4055 9.77 19.9862 9.887 20.4455 10.121C20.9049 10.355 21.2515 10.6583 21.4855 11.031C21.7195 11.395 21.8365 11.7893 21.8365 12.214C21.8365 12.474 21.8019 12.7297 21.7325 12.981C21.6719 13.2323 21.5635 13.462 21.4075 13.67C21.2602 13.878 21.0565 14.06 20.7965 14.216C21.1085 14.3633 21.3599 14.554 21.5505 14.788C21.7499 15.0133 21.8972 15.269 21.9925 15.555C22.0965 15.8323 22.1485 16.1313 22.1485 16.452C22.1485 16.9807 22.0055 17.4443 21.7195 17.843C21.4422 18.2417 21.0435 18.558 20.5235 18.792C20.0035 19.0173 19.3839 19.13 18.6645 19.13Z" fill="black"/>
</svg>
